<?xml version="1.0" encoding="utf-8"?>
<!-- Generator: Adobe Illustrator 17.1.0, SVG Export Plug-In . SVG Version: 6.00 Build 0)  -->
<!DOCTYPE svg PUBLIC "-//W3C//DTD SVG 1.1//EN" "http://www.w3.org/Graphics/SVG/1.1/DTD/svg11.dtd">
<svg version="1.1" id="Layer_2" xmlns="http://www.w3.org/2000/svg" xmlns:xlink="http://www.w3.org/1999/xlink" x="0px" y="0px"
	 viewBox="0 0 341.6 341.6" enable-background="new 0 0 341.6 341.6" xml:space="preserve">
<linearGradient id="SVGID_1_" gradientUnits="userSpaceOnUse" x1="7.6579" y1="4.9257" x2="337.7207" y2="340.5159">
	<stop  offset="0" style="stop-color:#468FFC"/>
	<stop  offset="0.2091" style="stop-color:#3C85F5"/>
	<stop  offset="0.65" style="stop-color:#2D75EB"/>
	<stop  offset="1" style="stop-color:#2870E7"/>
</linearGradient>
<path fill="url(#SVGID_1_)" d="M0,32C0,14.3,14.3,0,32,0h277.7c17.7,0,32,14.3,32,32v277.7c0,17.7-14.3,32-32,32H32
	c-17.7,0-32-14.3-32-32V32z"/>
<g>
	<path fill="#fff" d="M241.5,48.8h-22.2c7.9,6.5,25.5,20.1,25.5,48.8c0,26.2-16.1,39.1-23.3,45.2l-6.8,5.7c-5,5-10,9.7-10,17.6
		c0,5.4,2.2,9,9.3,15.1l12.9,10c3.6,2.9,7.2,5.7,10.4,9c12.9,12.2,19.7,23.7,19.7,41.6c0,8.3-1.8,21.9-14.7,37
		c-26.2,30.1-68.5,30.5-79.7,30.5c-5.4,0-32.7,0-52.8-12.2c-6.1-3.6-24.4-16.1-24.4-39.1c0.4-17.2,10.4-32.3,24-41.6
		c14.7-10.4,34.8-16.5,72.1-19c-0.7-1.1-1.8-2.2-2.5-3.2c-2.2-2.5-8.3-10.4-8.3-21.2c0-3.6,0.7-6.8,3.2-13.3
		c-3.9,0.4-16.1,1.4-28.3-1.8c-25.1-6.5-42.3-28.3-42.3-54.5c0-19.4,10.4-38,25.5-49.9c19-14.7,38-16.5,60.6-17.6h75.4L241.5,48.8z
		 M209.5,219.7c-5.4-3.9-10.4-7.9-15.8-11.5c-6.5-0.7-13.3-0.7-26.2,0.7c-37.3,5.4-50.6,22.6-50.6,41.6c0,4.7,0.7,13.3,7.9,22.6
		c16.5,21.2,50.2,21.2,55.3,21.2c16.1,0,36.6-3.9,46.7-19c5.7-8.3,6.1-15.8,6.1-19.7c0-13.6-7.2-21.5-16.5-30.5L209.5,219.7z
		 M202.7,72.5c-10.4-19.7-25.1-24.8-34.8-24.8c-3.2,0-9.7,0.7-16.5,4.7c-7.5,4.3-16.5,13.6-16.5,34.1c0,17.6,7.9,42.7,21.9,54.9
		c3.2,2.9,11.5,8.6,23.3,8.6c5.7,0,10.8-1.4,16.1-3.9c7.5-3.9,16.5-11.8,16.9-30.9C213.5,101.6,209.2,84.7,202.7,72.5z"/>
</g>
</svg>
